<?xml version="1.0" standalone="no"?><!DOCTYPE svg PUBLIC "-//W3C//DTD SVG 1.1//EN" "http://www.w3.org/Graphics/SVG/1.1/DTD/svg11.dtd"><svg t="1565227300638" class="icon" viewBox="0 0 1024 1024" version="1.1" xmlns="http://www.w3.org/2000/svg" p-id="815" xmlns:xlink="http://www.w3.org/1999/xlink" width="200" height="200"><defs><style type="text/css"></style></defs><path d="M237.358 284.465l131.473 375.31-27.57-19.554h548.988c16.137 0 29.213 13.08 29.213 29.214 0 16.129-13.076 29.205-29.213 29.205H341.26a29.203 29.203 0 0 1-27.566-19.55L109.05 94.897l27.568 19.554H77.587c-16.13 0-29.208-13.075-29.208-29.213 0-16.129 13.078-29.207 29.208-29.207h59.032a29.208 29.208 0 0 1 27.567 19.555l52.729 150.526h710.724c18.487 0 32.326 16.962 28.613 35.078l-46.634 227.39a29.215 29.215 0 0 1-25.382 23.16L452.72 559.805c-16.036 1.786-30.482-9.762-32.267-25.798-1.783-16.03 9.765-30.475 25.8-32.257l410.797-47.146s20.759-96.12 35.926-170.075c0.335-1.629-530.938-0.38-655.618-0.064z m170.08 533.908c23.362 0 42.369 19.005 42.369 42.366 0 23.36-19.007 42.365-42.369 42.365-23.36 0-42.364-19.005-42.364-42.365 0-23.361 19.004-42.366 42.364-42.366m0-55.779c-54.202 0-98.142 43.942-98.142 98.145 0 54.207 43.94 98.143 98.142 98.143s98.147-43.937 98.147-98.143c0-54.203-43.944-98.145-98.147-98.145z m408.935 55.779c23.358 0 42.36 19.005 42.36 42.366 0 23.36-19.002 42.365-42.36 42.365-23.36 0-42.365-19.005-42.365-42.365 0-23.361 19.005-42.366 42.365-42.366m0-55.779c-54.207 0-98.144 43.942-98.144 98.145 0 54.207 43.938 98.143 98.144 98.143 54.2 0 98.139-43.937 98.139-98.143 0-54.203-43.939-98.145-98.14-98.145z m0 196.288" fill="#333333" p-id="816"></path></svg>