<svg id="Layer_1" data-name="Layer 1" xmlns="http://www.w3.org/2000/svg" viewBox="0 0 2928 2480"><title>crcc</title><g id="图层_1"><g id="_2336442589728" data-name=" 2336442589728"><path d="M0,2289.83H110.15v-49.19H268.82v235H385.47v-235h162v41H667.29V1970.21H385.47v-68.31c0-20,3.18-37.29,9.67-51.87,2.22-3.73,3.33-6.41,3.33-8.27s-7.61-3.61-22.67-5.48H265.64v133.93H0v319.62Zm110.15-243.15H268.82v120.18H110.15V2046.68Zm437.31,120.18h-162V2046.68h162Z" style="fill:#332c2b"/><path d="M728.49,2472H829.34v-34.39h453.8v29.07h103.94V1870.38H728.49Zm554.65-530v426.68H829.34V1942h453.8ZM870.35,2106.28v66.27H999.56V2260H851.39v69h409.7v-69h-59.83l47.19-26.46q-6.25-8-44.1-61h37.78v-66.27H1100.41v-58.35h154.36v-66.27H857.72v66.27H999.56v58.35H870.35ZM1116.14,2199a723.43,723.43,0,0,1,47.2,61h-62.93v-87.42h62.93l-47.2,26.46Z" style="fill:#332c2b"/><path d="M1714.49,2036.63H1550.85c4.29-7.35,9.53-16.62,15.84-27.78a206.48,206.48,0,0,1,12.48-27.91H1736.5v-72.31h-129c16.77-33.37,26.31-52.84,28.32-58.43-27.26-7.48-59.74-13.89-97.45-19.47-4.3-1.9-7.38-2.85-9.54-2.85q-31.41,147.67-103.76,270c18.8,5.58,44,18.52,75.44,39l18.93-30.64h22v61.27H1440.78v72.32h100.67v91.91c0,11-10.46,23.15-31.41,36.09q31.43,86.39,40.82,94.65s12.62-6.54,37.85-19.48q88-50,169.81-94.63a306.47,306.47,0,0,1-15.71-75.16c-18.93,9.38-50.34,25.05-94.37,47.37,4.17-1.9,0,0-12.62,5.59v-86.33h91.28V2167.5h-91.28v-58.43h78.66v-72.44Zm63-155.79q-15.71,122.36-53.57,208.75c54.63,3.69,85,6.41,91.28,8.32a437.17,437.17,0,0,0,25.23-66.86h59.74v69.58c0,13.07-1.07,22.32-3.21,27.91H1755.42v75h132.09q-44.1,130.92-204.44,225.5c18.8,7.35,51.41,24.1,97.45,50.1q91.22-72.3,163.64-178.11,59.79,116.85,163.63,175.27,37.65-52.9,69.13-77.9-135.1-66.8-176.12-194.86h151v-75H1994.5c2.15-5.59,3.09-14.84,3.09-27.91v-66.73h129v-75.16H2000.81v-77.9a188.57,188.57,0,0,1,3.08-33.49c2.16-5.45,1.08-9.26-3.08-11-4.17-3.79-37.73-5.58-100.68-5.58v128h-40.94c4.17-14.84,9.54-31.59,15.71-50.11,2.15-12.94,3.22-19.47,3.22-19.47l-100.67-8.32Z" style="fill:#332c2b"/><path d="M2454.29,1945.15h111V1973h-145.9v66.7h145.9v30.63h-114.1v64h114.1v25.05H2444.82v66.82h120.47v24.93H2425.73v69.55h139.55v61.24q-120.4,0-187.06-44.5,41.22-89,38-267h-79.31q38-72.28,85.68-194.77H2194.15v75.13h95.15c-8.4,38.92-20,67.78-34.79,86.29q-19.08,27.77-57.12,30.62v75h117.35v64c-2.17,16.75-4.19,31.58-6.35,44.51-8.53-7.35-21.12-35.13-38-83.44q-69.85,16.74-85.68,16.74A790.42,790.42,0,0,0,2264,2340.15q-25.38,44.52-95.15,80.71,47.5,25.1,82.43,58.4,31.67-27.77,66.59-64,12.78-8.37,15.84-11,76.13,61.06,288.7,61.12h260.15a218.59,218.59,0,0,1,41.28-94.59q-107.8,11.2-260.15,11.15v-61.24h187.19v-69.55H2663.68V2226.2h165v-66.82h-165v-25.05h165v-94.59h69.7v-69.55h-69.7v-91.74h-165c0-13.06,2.17-24.1,6.36-33.36v-8.43c-2.17-3.68-8.52-5.57-19.08-5.57h-85.68v47.35h-111v66.7ZM2663.68,1973v-27.89h63.48V1973Zm0,66.7h66.59v30.63h-66.59Z" style="fill:#332c2b"/><path d="M933.56,735.63H795.3L683.87,1023.3,964.51,1017l1504.27-23.11-26.82,77.7-1303.33,32.33-792.38,17.48c-67.36-38.59-84.52-89.09-47.33-155.67C430.33,755.54,586,591.63,799.9,558.57H999.28L933.56,735.63Z" style="fill:#e62129"/><polygon points="2087.04 605.44 1957.04 958.21 2481.17 956.11 2522.43 842.72 2217.03 844.82 2272.76 702.03 2569.89 704.13 2596.72 618.03 2087.04 605.44" style="fill:#e62129"/><polygon points="1550.54 584.44 1414.34 960.31 1897.2 956.11 1940.53 842.72 1664.03 844.82 1721.81 691.53 1998.31 691.53 2037.51 599.14 1550.54 584.44" style="fill:#e62129"/><path d="M1036.73,563.44,896.41,964.51h200.16l37.15-113.4,94.93,113.4,136.18-2.09,24.76-73.5L1315.3,891l-45.4-50.39h142.38l94.93-258.28-470.48-18.9Zm161,96.59,160.94,4.21-24.76,71.39H1177Z" style="fill:#e62129"/><path d="M1449.3,1c342.16,0,653,96.1,878.41,251.1,227.17,156.21,368,372.34,368,610.93s-140.83,454.73-368,610.93c-225.42,155-536.25,251.1-878.41,251.1S796.3,1629,570.87,1474c-227.17-156.21-368-372.34-368-610.93s140.83-454.72,368-610.93C796.3,97.11,1107.14,1,1449.3,1Zm0,30.69c-336,0-640.89,94.08-861.59,245.83C368.77,428.09,233,635.3,233,863s135.75,435,354.69,585.51c220.7,151.76,525.54,245.84,861.59,245.84s640.88-94.08,861.56-245.84c219-150.55,354.69-357.76,354.69-585.51s-135.74-435-354.69-585.51C2090.17,125.79,1785.33,31.71,1449.3,31.71Z" style="fill:#15499a"/><path d="M1022.28,531c35.09-156.27,94.24-289.36,168.7-382.74C1264.65,55.86,1353.46,2,1449.3,2c93.87,0,181,51.63,253.68,140.43,73.51,89.79,132.56,218.15,168.89,369.54l-29.22,7.2c-35.18-146.64-92.12-270.67-162.88-357.08-67-81.83-146.2-129.41-230.47-129.41-86.21,0-167.06,49.69-235,134.87-71.57,89.76-128.62,218.51-162.7,370.28L1022.28,531Z" style="fill:#15499a"/><path d="M2257.46,1119.21a867.14,867.14,0,0,1-307.71,439.07c-140.37,105.42-313.53,167.8-500.45,167.8-181.72,0-350.41-58.95-488.62-159.06-142-102.86-251.78-249.21-310.41-419.73l28.38-10.07a836.25,836.25,0,0,0,299.46,404.86c133.21,96.49,295.88,153.31,471.19,153.31,180.33,0,347.29-60.12,482.55-161.7a836.63,836.63,0,0,0,296.87-423.59Z" style="fill:#15499a"/><path d="M665.66,537.4c64.2-159.76,174.09-295.78,312.93-391C1113.34,54,1275.34,0,1449.3,0c168.38,0,325.6,50.64,457.77,137.76,136.38,89.89,246,218.66,313.6,370.68L2193.22,521c-65.21-146.69-171-270.91-302.52-357.62C1763.36,79.48,1611.76,30.69,1449.3,30.69c-167.76,0-324,52.05-453.86,141.13-134,91.86-240,223-301.87,377.09Z" style="fill:#15499a"/><path d="M1964.17,97.58c-41.64,48.67-114.22,90-206.23,118.68-88.18,27.5-194.54,43.61-308.64,43.61-113.69,0-219.58-15.94-307.41-43.19-91.68-28.42-164.25-69.44-206.31-117.83l22.5-20.27c38.27,44.05,106,81.9,192.52,108.73,85.16,26.4,188,41.87,298.7,41.87,111.26,0,214.54-15.59,299.81-42.18,86.63-27,154.34-65.18,192.32-109.57l22.74,20.14Z" style="fill:#15499a"/><path d="M940.93,1621.61c43.62-46.81,116.19-86.37,207-113.79,87-26.27,191-41.61,302.46-41.61s215.48,15.34,302.46,41.61c90.8,27.42,163.38,67,207,113.79L1938,1642.7c-40-42.92-107.92-79.61-193.69-105.52-84.22-25.44-185.32-40.28-294-40.28s-209.77,14.84-294,40.28c-85.76,25.91-153.69,62.61-193.68,105.52l-21.79-21.09Z" style="fill:#15499a"/><path d="M464.35,1360.57c130.9-43.91,285.32-79.22,455.78-103.27,164-23.15,342.58-35.89,529.17-35.89,187,0,366,12.8,530.2,36,170.78,24.16,325.42,59.61,456.39,103.69l-9.42,29.12c-129.46-43.57-282.31-78.61-451.09-102.49-162.59-23-340.17-35.69-526.09-35.69-185.53,0-362.74,12.62-525,35.53-168.48,23.79-321.12,58.69-450.48,102.08l-9.42-29.12Z" style="fill:#15499a"/><path d="M470.41,367.53c-1.59-.53-3.19-1.08-4.79-1.6l9.31-29.12,4.79,1.6-9.31,29.12Z" style="fill:#15499a"/><path d="M484.85,340.12a.11.11,0,0,1,.06,0l-.05,0Z" style="fill:#15499a"/><path d="M2435.67,363.75c-131,44.47-285.92,80.23-457,104.59-164.61,23.44-344.14,36.36-531.76,36.36-182.43,0-358.09-12.65-519.87-35.32-169.44-23.74-323.52-58.52-454-101.31l9.19-29.12c128.88,42.25,281.19,76.61,448.86,100.11,160.11,22.44,334.4,35,515.86,35,186.55,0,364.67-12.79,527.64-36,169.29-24.1,322.33-59.41,451.55-103.27Z" style="fill:#15499a"/><path d="M935.58,1627.24c1.44-1.66,2.4-2.77,2.64-3h-.06l2.77-2.95,21.79,21.1c-.39.42-.38.44-2.3,2.58h-.06c-1.43,1.58-2.1,2.34-2.28,2.54l-22.5-20.26Z" style="fill:#15499a"/><path d="M1042.09,1142.79c34.75,154.81,97.36,298.52,174.8,401,70.76,93.66,153.5,152.45,237.72,152.45,81.28,0,164.13-62.18,236.26-157.89,80.83-107.24,147.5-255.8,183.8-407.12l29.21,7.2C1866.61,1293.8,1798,1446.5,1714.78,1557c-77.66,103-168.64,170-260.17,170-94.35,0-185.18-63.41-261.51-164.43-80.07-106-144.65-253.93-180.33-412.89Z" style="fill:#15499a"/><polygon points="1463.96 14.26 1463.96 544.67 1433.81 544.67 1433.81 14.26 1463.96 14.26" style="fill:#15499a"/><polygon points="1463.96 1123.34 1463.96 1710.27 1433.81 1710.27 1433.81 1123.34 1463.96 1123.34" style="fill:#15499a"/><polygon points="219.86 847.71 331.8 847.71 331.8 878.39 219.86 878.39 219.86 847.71" style="fill:#15499a"/><polygon points="2574.11 847.71 2686.06 847.71 2686.06 878.39 2574.11 878.39 2574.11 847.71" style="fill:#15499a"/></g></g></svg>